{"accessors" : [{"bufferView" : 0, "byteOffset" : 0, "componentType" : 5123, "count" : 1824, "type" : "SCALAR", "max" : [1570], "min" : [0]}, {"bufferView" : 1, "byteOffset" : 0, "componentType" : 5126, "count" : 1571, "type" : "VEC3", "max" : [-0.04185536503791809, 0.9841748476028442, 0.4299551248550415], "min" : [-0.3747464120388031, 0.9490582346916199, 0.2704694867134094], "name" : "POSITION"}, {"bufferView" : 1, "byteOffset" : 12, "componentType" : 5126, "count" : 1571, "type" : "VEC3", "max" : [1.0000044107437134, 1.0000044107437134, 1.0000044107437134], "min" : [-1.0000044107437134, -1.0000044107437134, -1.0000044107437134], "name" : "NORMAL"}, {"bufferView" : 1, "byteOffset" : 24, "componentType" : 5126, "count" : 1571, "type" : "VEC2", "max" : [0.9986366629600525, 0.9986327886581421], "min" : [0.0012052967213094234, 0.0013672113418579102], "name" : "TEXCOORD_0"}, {"bufferView" : 0, "byteOffset" : 3648, "componentType" : 5123, "count" : 324, "type" : "SCALAR", "max" : [282], "min" : [0]}, {"bufferView" : 2, "byteOffset" : 0, "componentType" : 5126, "count" : 283, "type" : "VEC3", "max" : [1.1926610469818115, 0.9490586519241333, 0.591978907585144], "min" : [-1.097343921661377, 0.9125364422798157, -0.25110387802124023], "name" : "POSITION"}, {"bufferView" : 2, "byteOffset" : 12, "componentType" : 5126, "count" : 283, "type" : "VEC3", "max" : [1.0000044107437134, 1.0000042915344238, 1.0000044107437134], "min" : [-1.0000044107437134, -1.0000042915344238, -1.0000044107437134], "name" : "NORMAL"}, {"bufferView" : 2, "byteOffset" : 24, "componentType" : 5126, "count" : 283, "type" : "VEC2", "max" : [0.9990888833999634, 0.983272910118103], "min" : [0.021360578015446663, 0.045454561710357666], "name" : "TEXCOORD_0"}, {"bufferView" : 0, "byteOffset" : 4296, "componentType" : 5123, "count" : 6, "type" : "SCALAR", "max" : [4], "min" : [0]}, {"bufferView" : 3, "byteOffset" : 0, "componentType" : 5126, "count" : 5, "type" : "VEC3", "max" : [1.4051849842071533, 7.578601360321045, 0.0734190046787262], "min" : [-2.348376989364624, 5.158514976501465, 0.0734190046787262], "name" : "POSITION"}, {"bufferView" : 3, "byteOffset" : 12, "componentType" : 5126, "count" : 5, "type" : "VEC3", "max" : [0, -0, 1.0000044107437134], "min" : [0, -0, 1.0000044107437134], "name" : "NORMAL"}, {"bufferView" : 3, "byteOffset" : 24, "componentType" : 5126, "count" : 5, "type" : "VEC2", "max" : [0.9545454978942871, 0.9545454382896423], "min" : [0.04545454680919647, 0.045454561710357666], "name" : "TEXCOORD_0"}, {"bufferView" : 0, "byteOffset" : 4308, "componentType" : 5123, "count" : 6063, "type" : "SCALAR", "max" : [5124], "min" : [0]}, {"bufferView" : 4, "byteOffset" : 0, "componentType" : 5126, "count" : 5125, "type" : "VEC3", "max" : [1.1700105667114258, 0.9200281500816345, 0.565078616142273], "min" : [-1.072494387626648, 0.22219371795654297, -0.22722691297531128], "name" : "POSITION"}, {"bufferView" : 4, "byteOffset" : 12, "componentType" : 5126, "count" : 5125, "type" : "VEC3", "max" : [0.9993988275527954, 0.9968587160110474, 0.9993666410446167], "min" : [-0.9993988275527954, -0.9968301057815552, -0.9238994717597961], "name" : "NORMAL"}, {"bufferView" : 4, "byteOffset" : 24, "componentType" : 5126, "count" : 5125, "type" : "VEC2", "max" : [0.9881638288497925, 1], "min" : [0, 0.00496828556060791], "name" : "TEXCOORD_0"}, {"bufferView" : 0, "byteOffset" : 16436, "componentType" : 5123, "count" : 16320, "type" : "SCALAR", "max" : [13955], "min" : [0]}, {"bufferView" : 5, "byteOffset" : 0, "componentType" : 5126, "count" : 13956, "type" : "VEC3", "max" : [181.5222930908203, 149.54531860351562, 100.53854370117188], "min" : [-163.0049591064453, 117.46198272705078, 97.24732971191406], "name" : "POSITION"}, {"bufferView" : 5, "byteOffset" : 12, "componentType" : 5126, "count" : 13956, "type" : "VEC3", "max" : [1.0000044107437134, 1.0000044107437134, 1.0000044107437134], "min" : [-1.0000044107437134, -1.0000044107437134, -1.0000044107437134], "name" : "NORMAL"}, {"bufferView" : 5, "byteOffset" : 24, "componentType" : 5126, "count" : 13956, "type" : "VEC2", "max" : [0.9979233741760254, 0.986984372138977], "min" : [0.004643466789275408, 0.045454561710357666], "name" : "TEXCOORD_0"}, {"bufferView" : 0, "byteOffset" : 49076, "componentType" : 5123, "count" : 2352, "type" : "SCALAR", "max" : [1973], "min" : [0]}, {"bufferView" : 6, "byteOffset" : 0, "componentType" : 5126, "count" : 1974, "type" : "VEC3", "max" : [0.4202808141708374, 0.9746944904327393, 0.42105385661125183], "min" : [0.3536393940448761, 0.9489942193031311, 0.31771376729011536], "name" : "POSITION"}, {"bufferView" : 6, "byteOffset" : 12, "componentType" : 5126, "count" : 1974, "type" : "VEC3", "max" : [0.9940762519836426, 0.9999653100967407, 0.9972454309463501], "min" : [-0.9873296022415161, -1.0000044107437134, -0.9889320135116577], "name" : "NORMAL"}, {"bufferView" : 6, "byteOffset" : 24, "componentType" : 5126, "count" : 1974, "type" : "VEC2", "max" : [0.9933589100837708, 0.9667690396308899], "min" : [0.018135737627744675, 0.012223601341247559], "name" : "TEXCOORD_0"}, {"bufferView" : 0, "byteOffset" : 53780, "componentType" : 5123, "count" : 594, "type" : "SCALAR", "max" : [492], "min" : [0]}, {"bufferView" : 7, "byteOffset" : 0, "componentType" : 5126, "count" : 493, "type" : "VEC3", "max" : [-0.35393181443214417, 0.6390558481216431, 0.3484656810760498], "min" : [-0.4264224171638489, 0.6271024942398071, 0.2484656721353531], "name" : "POSITION"}, {"bufferView" : 7, "byteOffset" : 12, "componentType" : 5126, "count" : 493, "type" : "VEC3", "max" : [0.7197140455245972, 0.7468096017837524, 0.9045434594154358], "min" : [-0.7447630763053894, -0.705825924873352, -0.9045434594154358], "name" : "NORMAL"}, {"bufferView" : 7, "byteOffset" : 24, "componentType" : 5126, "count" : 493, "type" : "VEC2", "max" : [0.9983054995536804, 0.9872725605964661], "min" : [0.012728850357234478, 0.013316810131072998], "name" : "TEXCOORD_0"}, {"bufferView" : 0, "byteOffset" : 54968, "componentType" : 5123, "count" : 14736, "type" : "SCALAR", "max" : [12375], "min" : [0]}, {"bufferView" : 8, "byteOffset" : 0, "componentType" : 5126, "count" : 12376, "type" : "VEC3", "max" : [4.090893745422363, -2.606052875518799, 3.8859376907348633], "min" : [2.312283992767334, -4.465080261230469, 1.6336255073547363], "name" : "POSITION"}, {"bufferView" : 8, "byteOffset" : 12, "componentType" : 5126, "count" : 12376, "type" : "VEC3", "max" : [0.9944363236427307, 1.0000044107437134, 0.9995051622390747], "min" : [-0.9944363236427307, -1.0000044107437134, -0.9961796998977661], "name" : "NORMAL"}, {"bufferView" : 8, "byteOffset" : 24, "componentType" : 5126, "count" : 12376, "type" : "VEC2", "max" : [0.9817415475845337, 0.9978671073913574], "min" : [0.004392500035464764, 0.008507072925567627], "name" : "TEXCOORD_0"}, {"bufferView" : 0, "byteOffset" : 84440, "componentType" : 5123, "count" : 768, "type" : "SCALAR", "max" : [689], "min" : [0]}, {"bufferView" : 9, "byteOffset" : 0, "componentType" : 5126, "count" : 690, "type" : "VEC3", "max" : [-26.095739364624023, 4.118867874145508, 40.171451568603516], "min" : [-44.982521057128906, 1.606055736541748, 13.0494384765625], "name" : "POSITION"}, {"bufferView" : 9, "byteOffset" : 12, "componentType" : 5126, "count" : 690, "type" : "VEC3", "max" : [0.998606264591217, 0.9888343214988708, 0.9938597679138184], "min" : [-0.9612812995910645, -0.9910731911659241, -0.9938597679138184], "name" : "NORMAL"}, {"bufferView" : 9, "byteOffset" : 24, "componentType" : 5126, "count" : 690, "type" : "VEC2", "max" : [0.9923695921897888, 0.9897991418838501], "min" : [0.01591314561665058, 0.012705445289611816], "name" : "TEXCOORD_0"}, {"bufferView" : 0, "byteOffset" : 85976, "componentType" : 5123, "count" : 438, "type" : "SCALAR", "max" : [370], "min" : [0]}, {"bufferView" : 10, "byteOffset" : 0, "componentType" : 5126, "count" : 371, "type" : "VEC3", "max" : [1.4453116655349731, 7.615799427032471, 0.11259990930557251], "min" : [-2.3885037899017334, 4.214469909667969, -1.3447216749191284], "name" : "POSITION"}, {"bufferView" : 10, "byteOffset" : 12, "componentType" : 5126, "count" : 371, "type" : "VEC3", "max" : [1.0000044107437134, 1.0000044107437134, 1.0000044107437134], "min" : [-1.0000044107437134, -1.0000044107437134, -1.0000044107437134], "name" : "NORMAL"}, {"bufferView" : 10, "byteOffset" : 24, "componentType" : 5126, "count" : 371, "type" : "VEC2", "max" : [0.9997034668922424, 0.9856722354888916], "min" : [0.011089727282524109, 0.0147438645362854], "name" : "TEXCOORD_0"}, {"bufferView" : 0, "byteOffset" : 86852, "componentType" : 5123, "count" : 180, "type" : "SCALAR", "max" : [149], "min" : [0]}, {"bufferView" : 11, "byteOffset" : 0, "componentType" : 5126, "count" : 150, "type" : "VEC3", "max" : [1.8276007175445557, 3.2206051349639893, 4.619542121887207], "min" : [-7.250341415405273, 0.22060513496398926, -0.38045787811279297], "name" : "POSITION"}, {"bufferView" : 11, "byteOffset" : 12, "componentType" : 5126, "count" : 150, "type" : "VEC3", "max" : [1.0000044107437134, 1.0000044107437134, 1.0000044107437134], "min" : [-1.0000044107437134, -1.0000044107437134, -1.0000044107437134], "name" : "NORMAL"}, {"bufferView" : 11, "byteOffset" : 24, "componentType" : 5126, "count" : 150, "type" : "VEC2", "max" : [0.9773184061050415, 0.9944105744361877], "min" : [0.01013447530567646, 0.00997161865234375], "name" : "TEXCOORD_0"}, {"bufferView" : 0, "byteOffset" : 87212, "componentType" : 5123, "count" : 11496, "type" : "SCALAR", "max" : [9723], "min" : [0]}, {"bufferView" : 12, "byteOffset" : 0, "componentType" : 5126, "count" : 9724, "type" : "VEC3", "max" : [1.1272337436676025, 1.5670149326324463, 0.5390129685401917], "min" : [0.9057722091674805, 0.950091540813446, 0.1919160783290863], "name" : "POSITION"}, {"bufferView" : 12, "byteOffset" : 12, "componentType" : 5126, "count" : 9724, "type" : "VEC3", "max" : [0.9996198415756226, 1.0000044107437134, 0.9967880845069885], "min" : [-0.9967880845069885, -0.9913465976715088, -0.9980842471122742], "name" : "NORMAL"}, {"bufferView" : 12, "byteOffset" : 24, "componentType" : 5126, "count" : 9724, "type" : "VEC2", "max" : [0.9960500597953796, 0.9928893446922302], "min" : [0.008088845759630203, 0.008272290229797363], "name" : "TEXCOORD_0"}], "asset" : {"generator" : "Aspose.3D 22.12", "version" : "2.0"}, "buffers" : [{"uri" : "data:application/octet-stream;base64,", "byteLength" : 1873488}], "bufferViews" : [{"buffer" : 0, "byteOffset" : 0, "byteLength" : 110204, "target" : 34963}, {"buffer" : 0, "byteOffset" : 110208, "byteLength" : 58368, "byteStride" : 32, "target" : 34962}, {"buffer" : 0, "byteOffset" : 168580, "byteLength" : 10368, "byteStride" : 32, "target" : 34962}, {"buffer" : 0, "byteOffset" : 178952, "byteLength" : 192, "byteStride" : 32, "target" : 34962}, {"buffer" : 0, "byteOffset" : 179148, "byteLength" : 194016, "byteStride" : 32, "target" : 34962}, {"buffer" : 0, "byteOffset" : 373168, "byteLength" : 522240, "byteStride" : 32, "target" : 34962}, {"buffer" : 0, "byteOffset" : 895412, "byteLength" : 75264, "byteStride" : 32, "target" : 34962}, {"buffer" : 0, "byteOffset" : 970680, "byteLength" : 19008, "byteStride" : 32, "target" : 34962}, {"buffer" : 0, "byteOffset" : 989692, "byteLength" : 471552, "byteStride" : 32, "target" : 34962}, {"buffer" : 0, "byteOffset" : 1461248, "byteLength" : 24576, "byteStride" : 32, "target" : 34962}, {"buffer" : 0, "byteOffset" : 1485828, "byteLength" : 14016, "byteStride" : 32, "target" : 34962}, {"buffer" : 0, "byteOffset" : 1499848, "byteLength" : 5760, "byteStride" : 32, "target" : 34962}, {"buffer" : 0, "byteOffset" : 1505612, "byteLength" : 367872, "byteStride" : 32, "target" : 34962}], "materials" : [{"name" : "Keyboard", "pbrMetallicRoughness" : {"baseColorFactor" : [0.6038274168968201, 0.6038274168968201, 0.6038274168968201, 1], "metallicFactor" : 0, "roughnessFactor" : 1}, "emissiveFactor" : [0, 0, 0], "alphaMode" : "OPAQUE", "doubleSided" : true}, {"name" : "Desk.Table", "pbrMetallicRoughness" : {"baseColorFactor" : [0.6038274168968201, 0.6038274168968201, 0.6038274168968201, 1], "metallicFactor" : 0, "roughnessFactor" : 1}, "emissiveFactor" : [0, 0, 0], "alphaMode" : "OPAQUE", "doubleSided" : true}, {"name" : "Screen", "pbrMetallicRoughness" : {"baseColorFactor" : [0.6038274168968201, 0.6038274168968201, 0.6038274168968201, 1], "metallicFactor" : 0, "roughnessFactor" : 1}, "emissiveFactor" : [0, 0, 0], "alphaMode" : "OPAQUE", "doubleSided" : true}, {"name" : "Desk.Drawers", "pbrMetallicRoughness" : {"baseColorFactor" : [0.6038274168968201, 0.6038274168968201, 0.6038274168968201, 1], "metallicFactor" : 0, "roughnessFactor" : 1}, "emissiveFactor" : [0, 0, 0], "alphaMode" : "OPAQUE", "doubleSided" : true}, {"name" : "Desk.Handles", "pbrMetallicRoughness" : {"baseColorFactor" : [0.6038274168968201, 0.6038274168968201, 0.6038274168968201, 1], "metallicFactor" : 0, "roughnessFactor" : 1}, "emissiveFactor" : [0, 0, 0], "alphaMode" : "OPAQUE", "doubleSided" : true}, {"name" : "Mouse", "pbrMetallicRoughness" : {"baseColorFactor" : [0.6038274168968201, 0.6038274168968201, 0.6038274168968201, 1], "metallicFactor" : 0, "roughnessFactor" : 1}, "emissiveFactor" : [0, 0, 0], "alphaMode" : "OPAQUE", "doubleSided" : true}, {"name" : "Moleskine", "pbrMetallicRoughness" : {"baseColorFactor" : [0.6038274168968201, 0.6038274168968201, 0.6038274168968201, 1], "metallicFactor" : 0, "roughnessFactor" : 0.5}, "emissiveFactor" : [0, 0, 0], "alphaMode" : "OPAQUE", "doubleSided" : true}, {"name" : "Chair", "pbrMetallicRoughness" : {"baseColorFactor" : [0.6038274168968201, 0.6038274168968201, 0.6038274168968201, 1], "metallicFactor" : 0, "roughnessFactor" : 1}, "emissiveFactor" : [0, 0, 0], "alphaMode" : "OPAQUE", "doubleSided" : true}, {"name" : "Chair.Pied", "pbrMetallicRoughness" : {"baseColorFactor" : [0.6038274168968201, 0.6038274168968201, 0.6038274168968201, 1], "metallicFactor" : 0, "roughnessFactor" : 1}, "emissiveFactor" : [0, 0, 0], "alphaMode" : "OPAQUE", "doubleSided" : true}, {"name" : "Screen.Frame", "pbrMetallicRoughness" : {"baseColorFactor" : [0.6038274168968201, 0.6038274168968201, 0.6038274168968201, 1], "metallicFactor" : 0, "roughnessFactor" : 1}, "emissiveFactor" : [0, 0, 0], "alphaMode" : "OPAQUE", "doubleSided" : true}, {"name" : "Room", "pbrMetallicRoughness" : {"baseColorFactor" : [0.6038274168968201, 0.6038274168968201, 0.6038274168968201, 1], "metallicFactor" : 0, "roughnessFactor" : 0.5}, "emissiveFactor" : [0, 0, 0], "alphaMode" : "OPAQUE", "doubleSided" : true}, {"name" : "Lamp", "pbrMetallicRoughness" : {"baseColorFactor" : [0.6038274168968201, 0.6038274168968201, 0.6038274168968201, 1], "metallicFactor" : 0, "roughnessFactor" : 1}, "emissiveFactor" : [0, 0, 0], "alphaMode" : "OPAQUE", "doubleSided" : true}], "meshes" : [{"primitives" : [{"attributes" : {"POSITION" : 1, "NORMAL" : 2, "TEXCOORD_0" : 3}, "indices" : 0, "material" : 0, "mode" : 4}]}, {"primitives" : [{"attributes" : {"POSITION" : 5, "NORMAL" : 6, "TEXCOORD_0" : 7}, "indices" : 4, "material" : 1, "mode" : 4}]}, {"primitives" : [{"attributes" : {"POSITION" : 9, "NORMAL" : 10, "TEXCOORD_0" : 11}, "indices" : 8, "material" : 2, "mode" : 4}]}, {"primitives" : [{"attributes" : {"POSITION" : 13, "NORMAL" : 14, "TEXCOORD_0" : 15}, "indices" : 12, "material" : 3, "mode" : 4}]}, {"primitives" : [{"attributes" : {"POSITION" : 17, "NORMAL" : 18, "TEXCOORD_0" : 19}, "indices" : 16, "material" : 4, "mode" : 4}]}, {"primitives" : [{"attributes" : {"POSITION" : 21, "NORMAL" : 22, "TEXCOORD_0" : 23}, "indices" : 20, "material" : 5, "mode" : 4}]}, {"primitives" : [{"attributes" : {"POSITION" : 25, "NORMAL" : 26, "TEXCOORD_0" : 27}, "indices" : 24, "material" : 6, "mode" : 4}]}, {"primitives" : [{"attributes" : {"POSITION" : 29, "NORMAL" : 30, "TEXCOORD_0" : 31}, "indices" : 28, "material" : 7, "mode" : 4}]}, {"primitives" : [{"attributes" : {"POSITION" : 33, "NORMAL" : 34, "TEXCOORD_0" : 35}, "indices" : 32, "material" : 8, "mode" : 4}]}, {"primitives" : [{"attributes" : {"POSITION" : 37, "NORMAL" : 38, "TEXCOORD_0" : 39}, "indices" : 36, "material" : 9, "mode" : 4}]}, {"primitives" : [{"attributes" : {"POSITION" : 41, "NORMAL" : 42, "TEXCOORD_0" : 43}, "indices" : 40, "material" : 10, "mode" : 4}]}, {"primitives" : [{"attributes" : {"POSITION" : 45, "NORMAL" : 46, "TEXCOORD_0" : 47}, "indices" : 44, "material" : 11, "mode" : 4}]}], "nodes" : [{"mesh" : 0, "name" : "Keyboard"}, {"mesh" : 1, "name" : "Desk.Table"}, {"matrix" : [0.21331284940242767, 0, 0, 0, 0, 0.2133130431175232, 0, 0, 0, 0, 0.21331286430358887, 0, 0, 0, 0, 1], "mesh" : 2, "name" : "Screen"}, {"mesh" : 3, "name" : "Desk.Drawers"}, {"matrix" : [0.005726221017539501, 0, 0, 0, 0, 0.005726221017539501, 0, 0, 0, 0, 0.005726221017539501, 0, 0, 0, 0, 1], "mesh" : 4, "name" : "Desk.Handles"}, {"mesh" : 5, "name" : "Mouse"}, {"matrix" : [1.4739426048405126, 0, 0.3394257208583416, 0, 0, 1.5125199556350708, 0, 0, -0.3394257208583416, 0, 1.4739426048405126, 0, 0, 0, 0, 1], "mesh" : 6, "name" : "Moleskine"}, {"matrix" : [-0.13608777881412534, 6.294241813721992E-08, 0.21001239142260533, 0, -6.294241813721992E-08, -0.2502500539879922, 3.421536039285557E-08, 0, 0.21001239142260533, -3.421536039285557E-08, 0.1360877663109659, 0, 0, 0, 0, 1], "mesh" : 7, "name" : "Chair"}, {"matrix" : [0.0118918558576915, 0.0024553196861306584, -0.017186273473862847, 0, 0.033392462616312554, 0.2249646589800807, 0.055245166111236844, 0, 0.016869171136243127, -0.005188367441892296, 0.010931203388710928, 0, 0, 0, 0, 1], "mesh" : 8, "name" : "Chair.Pied"}, {"matrix" : [0.21331286430358887, 0, 0, 0, 0, 0.21331286430358887, 0, 0, 0, 0, 0.21331286430358887, 0, 0, 0, 0, 1], "mesh" : 9, "name" : "Screen.Frame"}, {"mesh" : 10, "name" : "Room"}, {"mesh" : 11, "name" : "Lamp"}], "scene" : 0, "scenes" : [{"nodes" : [0, 1, 2, 3, 4, 5, 6, 7, 8, 9, 10, 11]}]}